<?xml version="1.0" encoding="UTF-8" standalone="no"?>
<svg
   xmlns:dc="http://purl.org/dc/elements/1.1/"
   xmlns:cc="http://creativecommons.org/ns#"
   xmlns:rdf="http://www.w3.org/1999/02/22-rdf-syntax-ns#"
   xmlns:svg="http://www.w3.org/2000/svg"
   xmlns="http://www.w3.org/2000/svg"
   xmlns:sodipodi="http://sodipodi.sourceforge.net/DTD/sodipodi-0.dtd"
   xmlns:inkscape="http://www.inkscape.org/namespaces/inkscape"
   inkscape:version="1.0rc1 (09960d6, 2020-04-09)"
   sodipodi:docname="icon.svg"
   id="svg9"
   version="1.1"
   viewBox="0 0 512 512"
   height="512"
   width="512">
  <metadata
     id="metadata15">
    <rdf:RDF>
      <cc:Work
         rdf:about="">
        <dc:format>image/svg+xml</dc:format>
        <dc:type
           rdf:resource="http://purl.org/dc/dcmitype/StillImage" />
        <dc:title>ic_fluent_point_scan_24_regular</dc:title>
      </cc:Work>
    </rdf:RDF>
  </metadata>
  <defs
     id="defs13" />
  <sodipodi:namedview
     inkscape:current-layer="svg9"
     inkscape:cy="133.29833"
     inkscape:cx="167.24101"
     inkscape:zoom="0.95703125"
     showgrid="false"
     id="namedview11"
     inkscape:window-height="480"
     inkscape:window-width="640"
     inkscape:pageshadow="2"
     inkscape:pageopacity="0"
     guidetolerance="10"
     gridtolerance="10"
     objecttolerance="10"
     borderopacity="1"
     bordercolor="#999999"
     pagecolor="#ffffff" />
  <!-- Uploaded to SVGRepo https://www.svgrepo.com -->
  <title
     id="title2">ic_fluent_point_scan_24_regular</title>
  <desc
     id="desc4">Created with Sketch.</desc>
  <g
     transform="matrix(25.6,0,0,25.6,-49.2,-49.2)"
     fill-rule="evenodd"
     fill="none"
     stroke-width="1"
     stroke="none"
     id="ðŸ”-Product-Icons">
    <g
       fill-rule="nonzero"
       fill="#212121"
       id="ic_fluent_point_scan_24_regular">
      <path
         inkscape:connector-curvature="0"
         id="ðŸŽ¨-Color"
         d="m 10.250249,2 c 0.379696,0 0.693491,0.2821539 0.743154,0.6482294 l 0.0068,0.1017706 4.42e-4,4.7940904 c 2.852389,0.3413149 5.114475,2.6036956 5.455339,5.4562226 L 21.25,13.00005 c 0.414214,0 0.75,0.335786 0.75,0.75 0,0.379696 -0.282154,0.693491 -0.648229,0.743153 l -0.101771,0.0068 -4.794173,8.32e-4 c -0.341557,2.851729 -2.603311,5.113282 -5.455136,5.454529 L 11.000249,21.25 c 0,0.414214 -0.335786,0.75 -0.75,0.75 C 9.8705533,22 9.5567581,21.717846 9.5070957,21.351771 L 9.5002491,21.25 9.500118,19.955449 C 6.6481467,19.614328 4.3862402,17.352715 4.044671,14.500882 L 2.75,14.50005 c -0.4142136,0 -0.75,-0.335786 -0.75,-0.75 0,-0.379696 0.2821539,-0.693491 0.6482294,-0.743153 L 2.75,13.00005 4.0444684,13.000313 C 4.3853449,10.147682 6.6475823,7.8852411 9.500118,7.5440532 L 9.5002491,2.75 C 9.5002491,2.3357864 9.8360355,2 10.250249,2 Z M 9.5,14.5 5.5590478,14.500854 c 0.3212413,2.022272 1.9186874,3.619437 3.9410995,3.940257 z m 5.44145,8.54e-4 L 11,14.5 l 8.47e-4,3.941032 C 13.023024,18.12003 14.620235,16.52296 14.94145,14.500854 Z M 9.5001473,9.0583907 C 7.4772346,9.3792901 5.8794982,10.977167 5.5588095,13.00015 L 9.5,13 Z M 11.000847,9.0584694 11,13 l 3.941689,1.5e-4 C 14.632478,11.049576 13.136003,9.4942206 11.215897,9.0977175 Z" />
    </g>
  </g>
</svg>
